<svg version="1.2" preserveAspectRatio="xMidYMid meet" height="150" viewBox="0 0 337.5 112.499997" zoomAndPan="magnify" width="450" xmlns:xlink="http://www.w3.org/1999/xlink" xmlns="http://www.w3.org/2000/svg"><defs><clipPath id="41dbb2482f"><path d="M 0.496094 0 L 336.503906 0 L 336.503906 112.003906 L 0.496094 112.003906 Z M 0.496094 0"></path></clipPath><clipPath id="2488cd4bee"><path d="M 321.53125 1.492188 L 334.972656 1.492188 L 334.972656 14.933594 L 321.53125 14.933594 Z M 321.53125 1.492188"></path></clipPath></defs><g id="1fafc029e7"><g clip-path="url(#41dbb2482f)" clip-rule="nonzero"><path d="M 0.496094 0 L 336.503906 0 L 336.503906 112.003906 L 0.496094 112.003906 Z M 0.496094 0" style="stroke:none;fill-rule:nonzero;fill:#ffffff;fill-opacity:1;"></path><path d="M 0.496094 0 L 336.503906 0 L 336.503906 112.003906 L 0.496094 112.003906 Z M 0.496094 0" style="stroke:none;fill-rule:nonzero;fill:#ffffff;fill-opacity:1;"></path></g><path d="M 329.234375 6.953125 C 329.234375 7.132812 329.195312 7.292969 329.113281 7.433594 C 329.035156 7.566406 328.886719 7.675781 328.675781 7.753906 C 328.554688 7.800781 328.40625 7.832031 328.230469 7.855469 C 328.054688 7.878906 327.835938 7.890625 327.578125 7.890625 L 327.089844 7.890625 L 327.089844 6.132812 L 327.828125 6.132812 C 328.066406 6.132812 328.269531 6.144531 328.429688 6.167969 C 328.585938 6.191406 328.71875 6.226562 328.820312 6.273438 C 328.96875 6.339844 329.078125 6.429688 329.140625 6.542969 C 329.203125 6.660156 329.234375 6.796875 329.234375 6.953125 Z M 329.128906 8.804688 C 329.597656 8.652344 329.957031 8.429688 330.191406 8.132812 C 330.441406 7.816406 330.570312 7.425781 330.570312 6.976562 C 330.570312 6.542969 330.464844 6.179688 330.253906 5.890625 C 330.046875 5.601562 329.75 5.382812 329.367188 5.238281 C 329.171875 5.164062 328.933594 5.109375 328.65625 5.074219 C 328.382812 5.039062 328.085938 5.019531 327.769531 5.019531 L 325.789062 5.019531 L 325.789062 11.421875 L 327.089844 11.421875 L 327.089844 9.003906 L 327.753906 9.003906 L 329.453125 11.421875 L 331.023438 11.421875 L 329.128906 8.804688" style="stroke:none;fill-rule:nonzero;fill:#5a5656;fill-opacity:1;"></path><g clip-path="url(#2488cd4bee)" clip-rule="nonzero"><path d="M 328.253906 2.589844 C 325.152344 2.589844 322.628906 5.113281 322.628906 8.214844 C 322.628906 11.316406 325.152344 13.839844 328.253906 13.839844 C 331.355469 13.839844 333.878906 11.316406 333.878906 8.214844 C 333.878906 5.113281 331.355469 2.589844 328.253906 2.589844 Z M 328.253906 14.933594 C 327.34375 14.933594 326.464844 14.757812 325.636719 14.40625 C 324.835938 14.066406 324.117188 13.582031 323.5 12.964844 C 322.882812 12.347656 322.398438 11.628906 322.058594 10.828125 C 321.710938 10 321.53125 9.121094 321.53125 8.214844 C 321.53125 7.308594 321.710938 6.425781 322.058594 5.597656 C 322.398438 4.796875 322.882812 4.078125 323.5 3.460938 C 324.117188 2.84375 324.835938 2.359375 325.636719 2.023438 C 326.464844 1.671875 327.34375 1.492188 328.253906 1.492188 C 329.160156 1.492188 330.039062 1.671875 330.867188 2.023438 C 331.667969 2.359375 332.386719 2.84375 333.003906 3.460938 C 333.621094 4.078125 334.105469 4.796875 334.445312 5.597656 C 334.796875 6.425781 334.972656 7.308594 334.972656 8.214844 C 334.972656 9.121094 334.796875 10 334.445312 10.828125 C 334.105469 11.628906 333.621094 12.347656 333.003906 12.964844 C 332.386719 13.582031 331.667969 14.066406 330.867188 14.40625 C 330.039062 14.757812 329.160156 14.933594 328.253906 14.933594" style="stroke:none;fill-rule:nonzero;fill:#5a5656;fill-opacity:1;"></path></g><path d="M 98.277344 25.496094 L 98.277344 92.183594 C 98.277344 95.832031 96.558594 99.011719 94.023438 100.65625 C 92.851562 101.421875 91.5 101.859375 90.0625 101.859375 L 14.195312 101.859375 C 13.105469 101.859375 12.058594 101.605469 11.109375 101.148438 C 10.042969 100.644531 9.082031 99.875 8.292969 98.921875 C 6.863281 97.179688 5.980469 94.800781 5.980469 92.183594 L 5.980469 25.496094 C 5.980469 25.226562 5.984375 24.960938 6.011719 24.703125 C 6.347656 19.730469 9.882812 15.824219 14.195312 15.824219 L 90.0625 15.824219 C 94.375 15.824219 97.910156 19.730469 98.246094 24.703125 C 98.269531 24.960938 98.277344 25.230469 98.277344 25.496094 Z M 98.277344 25.496094" style="stroke:none;fill-rule:nonzero;fill:#aadbcf;fill-opacity:1;"></path><path d="M 50.902344 50.578125 C 50.902344 51.234375 50.839844 51.886719 50.710938 52.527344 C 50.582031 53.171875 50.390625 53.796875 50.140625 54.402344 C 49.890625 55.007812 49.582031 55.585938 49.21875 56.128906 C 48.855469 56.675781 48.4375 57.179688 47.976562 57.644531 C 47.511719 58.109375 47.007812 58.523438 46.460938 58.886719 C 45.914062 59.25 45.339844 59.558594 44.734375 59.8125 C 44.128906 60.0625 43.503906 60.25 42.859375 60.378906 C 42.214844 60.507812 41.566406 60.570312 40.910156 60.570312 C 40.253906 60.570312 39.605469 60.507812 38.960938 60.378906 C 38.316406 60.25 37.691406 60.0625 37.085938 59.8125 C 36.480469 59.558594 35.90625 59.25 35.359375 58.886719 C 34.8125 58.523438 34.308594 58.109375 33.84375 57.644531 C 33.382812 57.179688 32.96875 56.675781 32.601562 56.128906 C 32.238281 55.585938 31.929688 55.007812 31.679688 54.402344 C 31.429688 53.796875 31.238281 53.171875 31.109375 52.527344 C 30.984375 51.886719 30.917969 51.234375 30.917969 50.578125 C 30.917969 49.921875 30.984375 49.273438 31.109375 48.628906 C 31.238281 47.988281 31.429688 47.363281 31.679688 46.757812 C 31.929688 46.148438 32.238281 45.574219 32.601562 45.027344 C 32.96875 44.484375 33.382812 43.980469 33.84375 43.515625 C 34.308594 43.050781 34.8125 42.636719 35.359375 42.273438 C 35.90625 41.90625 36.480469 41.601562 37.085938 41.347656 C 37.691406 41.097656 38.316406 40.910156 38.960938 40.78125 C 39.605469 40.652344 40.253906 40.589844 40.910156 40.589844 C 41.566406 40.589844 42.214844 40.652344 42.859375 40.78125 C 43.503906 40.910156 44.128906 41.097656 44.734375 41.347656 C 45.339844 41.601562 45.914062 41.90625 46.460938 42.273438 C 47.007812 42.636719 47.511719 43.050781 47.976562 43.515625 C 48.4375 43.980469 48.855469 44.484375 49.21875 45.027344 C 49.582031 45.574219 49.890625 46.148438 50.140625 46.757812 C 50.390625 47.363281 50.582031 47.988281 50.710938 48.628906 C 50.839844 49.273438 50.902344 49.921875 50.902344 50.578125 Z M 50.902344 50.578125" style="stroke:none;fill-rule:nonzero;fill:#ffffff;fill-opacity:1;"></path><path d="M 73.367188 50.578125 C 73.367188 51.234375 73.304688 51.886719 73.175781 52.527344 C 73.046875 53.171875 72.859375 53.796875 72.609375 54.402344 C 72.355469 55.007812 72.050781 55.585938 71.683594 56.128906 C 71.320312 56.675781 70.90625 57.179688 70.441406 57.644531 C 69.976562 58.109375 69.472656 58.523438 68.929688 58.886719 C 68.382812 59.25 67.808594 59.558594 67.199219 59.8125 C 66.59375 60.0625 65.96875 60.25 65.328125 60.378906 C 64.683594 60.507812 64.035156 60.570312 63.378906 60.570312 C 62.722656 60.570312 62.070312 60.507812 61.429688 60.378906 C 60.785156 60.25 60.160156 60.0625 59.554688 59.8125 C 58.949219 59.558594 58.371094 59.25 57.828125 58.886719 C 57.28125 58.523438 56.777344 58.109375 56.3125 57.644531 C 55.847656 57.179688 55.433594 56.675781 55.070312 56.128906 C 54.707031 55.585938 54.398438 55.007812 54.148438 54.402344 C 53.894531 53.796875 53.707031 53.171875 53.578125 52.527344 C 53.449219 51.886719 53.386719 51.234375 53.386719 50.578125 C 53.386719 49.921875 53.449219 49.273438 53.578125 48.628906 C 53.707031 47.988281 53.894531 47.363281 54.148438 46.757812 C 54.398438 46.148438 54.707031 45.574219 55.070312 45.027344 C 55.433594 44.484375 55.847656 43.980469 56.3125 43.515625 C 56.777344 43.050781 57.28125 42.636719 57.828125 42.273438 C 58.371094 41.90625 58.949219 41.601562 59.554688 41.347656 C 60.160156 41.097656 60.785156 40.910156 61.429688 40.78125 C 62.070312 40.652344 62.722656 40.589844 63.378906 40.589844 C 64.035156 40.589844 64.683594 40.652344 65.328125 40.78125 C 65.96875 40.910156 66.59375 41.097656 67.199219 41.347656 C 67.808594 41.601562 68.382812 41.90625 68.929688 42.273438 C 69.472656 42.636719 69.976562 43.050781 70.441406 43.515625 C 70.90625 43.980469 71.320312 44.484375 71.683594 45.027344 C 72.050781 45.574219 72.355469 46.148438 72.609375 46.757812 C 72.859375 47.363281 73.046875 47.988281 73.175781 48.628906 C 73.304688 49.273438 73.367188 49.921875 73.367188 50.578125 Z M 73.367188 50.578125" style="stroke:none;fill-rule:nonzero;fill:#ffffff;fill-opacity:1;"></path><path d="M 41.976562 63.761719 C 41.976562 64.304688 41.921875 64.839844 41.816406 65.371094 C 41.710938 65.902344 41.554688 66.421875 41.347656 66.921875 C 41.140625 67.421875 40.882812 67.898438 40.582031 68.347656 C 40.28125 68.800781 39.941406 69.214844 39.558594 69.601562 C 39.171875 69.984375 38.757812 70.324219 38.304688 70.625 C 37.855469 70.925781 37.378906 71.183594 36.878906 71.390625 C 36.378906 71.597656 35.859375 71.753906 35.328125 71.859375 C 34.796875 71.964844 34.261719 72.019531 33.71875 72.019531 C 33.175781 72.019531 32.640625 71.964844 32.109375 71.859375 C 31.574219 71.753906 31.058594 71.597656 30.558594 71.390625 C 30.058594 71.183594 29.582031 70.925781 29.132812 70.625 C 28.679688 70.324219 28.265625 69.984375 27.878906 69.601562 C 27.496094 69.214844 27.15625 68.800781 26.855469 68.347656 C 26.550781 67.898438 26.296875 67.421875 26.089844 66.921875 C 25.882812 66.421875 25.726562 65.902344 25.621094 65.371094 C 25.515625 64.839844 25.460938 64.304688 25.460938 63.761719 C 25.460938 63.21875 25.515625 62.683594 25.621094 62.152344 C 25.726562 61.621094 25.882812 61.101562 26.089844 60.601562 C 26.296875 60.101562 26.550781 59.625 26.855469 59.175781 C 27.15625 58.722656 27.496094 58.308594 27.878906 57.921875 C 28.265625 57.539062 28.679688 57.199219 29.132812 56.898438 C 29.582031 56.59375 30.058594 56.339844 30.558594 56.132812 C 31.058594 55.925781 31.574219 55.769531 32.109375 55.664062 C 32.640625 55.558594 33.175781 55.503906 33.71875 55.503906 C 34.261719 55.503906 34.796875 55.558594 35.328125 55.664062 C 35.859375 55.769531 36.378906 55.925781 36.878906 56.132812 C 37.378906 56.339844 37.855469 56.59375 38.304688 56.898438 C 38.757812 57.199219 39.171875 57.539062 39.558594 57.921875 C 39.941406 58.308594 40.28125 58.722656 40.582031 59.175781 C 40.882812 59.625 41.140625 60.101562 41.347656 60.601562 C 41.554688 61.101562 41.710938 61.621094 41.816406 62.152344 C 41.921875 62.683594 41.976562 63.21875 41.976562 63.761719 Z M 41.976562 63.761719" style="stroke:none;fill-rule:nonzero;fill:#aadbcf;fill-opacity:1;"></path><path d="M 79.890625 63.785156 C 79.890625 64.328125 79.835938 64.863281 79.730469 65.394531 C 79.625 65.929688 79.46875 66.445312 79.261719 66.945312 C 79.054688 67.445312 78.800781 67.921875 78.5 68.371094 C 78.199219 68.824219 77.855469 69.238281 77.472656 69.625 C 77.089844 70.007812 76.671875 70.347656 76.21875 70.648438 C 75.769531 70.953125 75.292969 71.207031 74.792969 71.414062 C 74.292969 71.621094 73.777344 71.777344 73.246094 71.882812 C 72.710938 71.988281 72.175781 72.042969 71.632812 72.042969 C 71.089844 72.042969 70.554688 71.988281 70.023438 71.882812 C 69.492188 71.777344 68.976562 71.621094 68.472656 71.414062 C 67.972656 71.207031 67.496094 70.953125 67.046875 70.648438 C 66.597656 70.347656 66.179688 70.007812 65.796875 69.625 C 65.414062 69.238281 65.070312 68.824219 64.769531 68.371094 C 64.46875 67.921875 64.214844 67.445312 64.007812 66.945312 C 63.796875 66.445312 63.640625 65.929688 63.535156 65.394531 C 63.429688 64.863281 63.378906 64.328125 63.378906 63.785156 C 63.378906 63.242188 63.429688 62.707031 63.535156 62.175781 C 63.640625 61.644531 63.796875 61.125 64.003906 60.625 C 64.214844 60.125 64.46875 59.648438 64.769531 59.199219 C 65.070312 58.746094 65.414062 58.332031 65.796875 57.949219 C 66.179688 57.5625 66.597656 57.222656 67.046875 56.921875 C 67.496094 56.621094 67.972656 56.363281 68.472656 56.15625 C 68.976562 55.949219 69.492188 55.792969 70.023438 55.6875 C 70.554688 55.582031 71.089844 55.527344 71.632812 55.527344 C 72.175781 55.527344 72.710938 55.582031 73.246094 55.6875 C 73.777344 55.792969 74.292969 55.949219 74.792969 56.15625 C 75.292969 56.363281 75.769531 56.621094 76.21875 56.921875 C 76.671875 57.222656 77.089844 57.5625 77.472656 57.949219 C 77.855469 58.332031 78.199219 58.746094 78.5 59.199219 C 78.800781 59.648438 79.054688 60.125 79.261719 60.625 C 79.46875 61.125 79.625 61.644531 79.730469 62.175781 C 79.835938 62.707031 79.890625 63.242188 79.890625 63.785156 Z M 79.890625 63.785156" style="stroke:none;fill-rule:nonzero;fill:#aadbcf;fill-opacity:1;"></path><path d="M 63.066406 66.558594 C 62.589844 68.359375 61.65625 69.96875 60.402344 71.261719 C 58.445312 73.28125 55.707031 74.535156 52.679688 74.535156 C 50.308594 74.535156 48.121094 73.769531 46.34375 72.46875 C 44.386719 71.039062 42.933594 68.964844 42.289062 66.5625 C 41.917969 65.160156 43.003906 63.785156 44.457031 63.785156 L 60.902344 63.785156 C 62.355469 63.785156 63.445312 65.160156 63.066406 66.5625 Z M 63.066406 66.558594" style="stroke:none;fill-rule:nonzero;fill:#261e1f;fill-opacity:1;"></path><path d="M 60.402344 71.261719 C 58.445312 73.28125 55.707031 74.535156 52.679688 74.535156 C 50.308594 74.535156 48.121094 73.769531 46.34375 72.46875 C 47.808594 69.878906 50.59375 68.125 53.785156 68.125 C 56.449219 68.125 58.832031 69.347656 60.402344 71.265625 Z M 60.402344 71.261719" style="stroke:none;fill-rule:nonzero;fill:#ef618e;fill-opacity:1;"></path><path d="M 71.371094 33.875 L 75.695312 30.214844 L 81.6875 37.292969 L 77.363281 40.953125 Z M 71.371094 33.875" style="stroke:none;fill-rule:nonzero;fill:#efab7f;fill-opacity:1;"></path><path d="M 79.636719 43.0625 L 90.082031 38.871094 L 92.125 43.960938 L 81.675781 48.148438 Z M 79.636719 43.0625" style="stroke:none;fill-rule:nonzero;fill:#ef618e;fill-opacity:1;"></path><path d="M 30.742188 33.34375 C 30.742188 33.777344 30.660156 34.195312 30.492188 34.59375 C 30.328125 34.996094 30.09375 35.347656 29.785156 35.65625 C 29.480469 35.960938 29.125 36.195312 28.726562 36.363281 C 28.328125 36.527344 27.910156 36.609375 27.476562 36.609375 C 27.042969 36.609375 26.628906 36.527344 26.226562 36.363281 C 25.828125 36.195312 25.472656 35.960938 25.167969 35.65625 C 24.863281 35.347656 24.625 34.996094 24.460938 34.59375 C 24.292969 34.195312 24.210938 33.777344 24.210938 33.34375 C 24.210938 32.914062 24.292969 32.496094 24.460938 32.097656 C 24.625 31.695312 24.863281 31.34375 25.167969 31.035156 C 25.472656 30.730469 25.828125 30.496094 26.226562 30.328125 C 26.628906 30.164062 27.042969 30.078125 27.476562 30.078125 C 27.910156 30.078125 28.328125 30.164062 28.726562 30.328125 C 29.125 30.496094 29.480469 30.730469 29.785156 31.035156 C 30.09375 31.34375 30.328125 31.695312 30.492188 32.097656 C 30.660156 32.496094 30.742188 32.914062 30.742188 33.34375 Z M 30.742188 33.34375" style="stroke:none;fill-rule:nonzero;fill:#ef618e;fill-opacity:1;"></path><path d="M 45.925781 50.578125 C 45.925781 50.910156 45.894531 51.234375 45.828125 51.558594 C 45.765625 51.882812 45.667969 52.195312 45.542969 52.5 C 45.417969 52.804688 45.261719 53.09375 45.082031 53.367188 C 44.898438 53.640625 44.6875 53.894531 44.457031 54.125 C 44.222656 54.359375 43.96875 54.566406 43.695312 54.75 C 43.421875 54.933594 43.132812 55.085938 42.828125 55.210938 C 42.527344 55.339844 42.210938 55.433594 41.890625 55.5 C 41.566406 55.5625 41.238281 55.59375 40.910156 55.59375 C 40.582031 55.59375 40.253906 55.5625 39.933594 55.5 C 39.609375 55.433594 39.296875 55.339844 38.992188 55.210938 C 38.6875 55.085938 38.398438 54.933594 38.125 54.75 C 37.851562 54.566406 37.597656 54.359375 37.363281 54.125 C 37.132812 53.894531 36.925781 53.640625 36.742188 53.367188 C 36.558594 53.09375 36.402344 52.804688 36.277344 52.5 C 36.152344 52.195312 36.054688 51.882812 35.992188 51.558594 C 35.929688 51.234375 35.894531 50.910156 35.894531 50.578125 C 35.894531 50.25 35.929688 49.925781 35.992188 49.601562 C 36.054688 49.277344 36.152344 48.964844 36.277344 48.660156 C 36.402344 48.355469 36.558594 48.066406 36.742188 47.792969 C 36.925781 47.519531 37.132812 47.265625 37.363281 47.035156 C 37.597656 46.800781 37.851562 46.59375 38.125 46.410156 C 38.398438 46.226562 38.6875 46.074219 38.992188 45.945312 C 39.296875 45.820312 39.609375 45.726562 39.933594 45.660156 C 40.253906 45.597656 40.582031 45.566406 40.910156 45.566406 C 41.238281 45.566406 41.566406 45.597656 41.890625 45.660156 C 42.210938 45.726562 42.527344 45.820312 42.828125 45.945312 C 43.132812 46.074219 43.421875 46.226562 43.695312 46.410156 C 43.96875 46.59375 44.222656 46.800781 44.457031 47.035156 C 44.6875 47.265625 44.898438 47.519531 45.082031 47.792969 C 45.261719 48.066406 45.417969 48.355469 45.542969 48.660156 C 45.667969 48.964844 45.765625 49.277344 45.828125 49.601562 C 45.894531 49.925781 45.925781 50.25 45.925781 50.578125 Z M 45.925781 50.578125" style="stroke:none;fill-rule:nonzero;fill:#261e1f;fill-opacity:1;"></path><path d="M 68.15625 50.578125 C 68.15625 50.910156 68.125 51.234375 68.058594 51.558594 C 67.996094 51.882812 67.902344 52.195312 67.773438 52.5 C 67.648438 52.804688 67.496094 53.09375 67.3125 53.367188 C 67.128906 53.640625 66.921875 53.894531 66.6875 54.125 C 66.453125 54.359375 66.203125 54.566406 65.929688 54.75 C 65.652344 54.933594 65.363281 55.085938 65.0625 55.210938 C 64.757812 55.339844 64.441406 55.433594 64.121094 55.5 C 63.796875 55.5625 63.472656 55.59375 63.140625 55.59375 C 62.8125 55.59375 62.488281 55.5625 62.164062 55.5 C 61.839844 55.433594 61.527344 55.339844 61.222656 55.210938 C 60.917969 55.085938 60.628906 54.933594 60.355469 54.75 C 60.082031 54.566406 59.828125 54.359375 59.597656 54.125 C 59.363281 53.894531 59.15625 53.640625 58.972656 53.367188 C 58.789062 53.09375 58.636719 52.804688 58.507812 52.5 C 58.382812 52.195312 58.289062 51.882812 58.222656 51.558594 C 58.160156 51.234375 58.128906 50.910156 58.128906 50.578125 C 58.128906 50.25 58.160156 49.925781 58.222656 49.601562 C 58.289062 49.277344 58.382812 48.964844 58.507812 48.660156 C 58.636719 48.355469 58.789062 48.066406 58.972656 47.792969 C 59.15625 47.519531 59.363281 47.265625 59.597656 47.035156 C 59.828125 46.800781 60.082031 46.59375 60.355469 46.410156 C 60.628906 46.226562 60.917969 46.074219 61.222656 45.945312 C 61.527344 45.820312 61.839844 45.726562 62.164062 45.660156 C 62.488281 45.597656 62.8125 45.566406 63.140625 45.566406 C 63.472656 45.566406 63.796875 45.597656 64.121094 45.660156 C 64.441406 45.726562 64.757812 45.820312 65.0625 45.945312 C 65.363281 46.074219 65.652344 46.226562 65.929688 46.410156 C 66.203125 46.59375 66.453125 46.800781 66.6875 47.035156 C 66.921875 47.265625 67.128906 47.519531 67.3125 47.792969 C 67.496094 48.066406 67.648438 48.355469 67.773438 48.660156 C 67.902344 48.964844 67.996094 49.277344 68.058594 49.601562 C 68.125 49.925781 68.15625 50.25 68.15625 50.578125 Z M 68.15625 50.578125" style="stroke:none;fill-rule:nonzero;fill:#261e1f;fill-opacity:1;"></path><path d="M 44.25 46.53125 C 44.25 46.691406 44.21875 46.847656 44.15625 46.996094 C 44.097656 47.144531 44.007812 47.277344 43.894531 47.390625 C 43.78125 47.503906 43.648438 47.59375 43.5 47.65625 C 43.347656 47.71875 43.195312 47.75 43.03125 47.75 C 42.871094 47.75 42.714844 47.71875 42.566406 47.65625 C 42.417969 47.59375 42.285156 47.503906 42.171875 47.390625 C 42.054688 47.277344 41.96875 47.144531 41.90625 46.996094 C 41.84375 46.847656 41.8125 46.691406 41.8125 46.53125 C 41.8125 46.367188 41.84375 46.210938 41.90625 46.0625 C 41.96875 45.914062 42.054688 45.78125 42.171875 45.667969 C 42.285156 45.554688 42.417969 45.464844 42.566406 45.402344 C 42.714844 45.339844 42.871094 45.3125 43.03125 45.3125 C 43.195312 45.3125 43.347656 45.339844 43.5 45.402344 C 43.648438 45.464844 43.78125 45.554688 43.894531 45.667969 C 44.007812 45.78125 44.097656 45.914062 44.15625 46.0625 C 44.21875 46.210938 44.25 46.367188 44.25 46.53125 Z M 44.25 46.53125" style="stroke:none;fill-rule:nonzero;fill:#ffffff;fill-opacity:1;"></path><path d="M 66.964844 46.53125 C 66.964844 46.691406 66.933594 46.847656 66.871094 46.996094 C 66.808594 47.144531 66.722656 47.277344 66.609375 47.390625 C 66.492188 47.503906 66.363281 47.59375 66.210938 47.65625 C 66.0625 47.71875 65.90625 47.75 65.746094 47.75 C 65.585938 47.75 65.429688 47.71875 65.28125 47.65625 C 65.128906 47.59375 65 47.503906 64.882812 47.390625 C 64.769531 47.277344 64.683594 47.144531 64.621094 46.996094 C 64.558594 46.847656 64.527344 46.691406 64.527344 46.53125 C 64.527344 46.367188 64.558594 46.210938 64.621094 46.0625 C 64.683594 45.914062 64.769531 45.78125 64.882812 45.667969 C 65 45.554688 65.128906 45.464844 65.28125 45.402344 C 65.429688 45.339844 65.585938 45.3125 65.746094 45.3125 C 65.90625 45.3125 66.0625 45.339844 66.210938 45.402344 C 66.363281 45.464844 66.492188 45.554688 66.609375 45.667969 C 66.722656 45.78125 66.808594 45.914062 66.871094 46.0625 C 66.933594 46.210938 66.964844 46.367188 66.964844 46.53125 Z M 66.964844 46.53125" style="stroke:none;fill-rule:nonzero;fill:#ffffff;fill-opacity:1;"></path><path d="M 47.644531 10.355469 L 38.550781 5.167969 C 36.007812 3.71875 32.847656 5.554688 32.847656 8.480469 L 32.847656 16.457031 L 51.179688 16.433594 C 51.179688 13.917969 49.828125 11.597656 47.644531 10.355469 Z M 47.644531 10.355469" style="stroke:none;fill-rule:nonzero;fill:#ef618e;fill-opacity:1;"></path><path d="M 54.160156 10.355469 L 63.253906 5.167969 C 65.796875 3.71875 68.957031 5.554688 68.957031 8.480469 L 68.957031 16.457031 C 68.957031 16.457031 50.628906 16.433594 50.628906 16.433594 C 50.628906 13.917969 51.976562 11.597656 54.160156 10.355469 Z M 54.160156 10.355469" style="stroke:none;fill-rule:nonzero;fill:#ef618e;fill-opacity:1;"></path><path d="M 35.246094 73.066406 L 33.023438 72.613281 L 37.289062 68.046875 C 38.128906 67.148438 38.082031 65.738281 37.183594 64.902344 C 36.285156 64.0625 34.878906 64.109375 34.039062 65.007812 L 29.304688 70.5625 L 31.023438 64.054688 C 31.335938 62.863281 30.625 61.648438 29.433594 61.335938 C 28.246094 61.027344 27.03125 61.738281 26.71875 62.929688 L 24.925781 69.78125 L 23.457031 66.898438 C 22.902344 65.804688 21.5625 65.371094 20.464844 65.929688 C 19.367188 66.484375 18.933594 67.828125 19.492188 68.921875 L 22.546875 74.914062 C 18.828125 83.511719 15.105469 92.105469 11.390625 100.707031 C 11.316406 100.875 11.21875 101.027344 11.105469 101.152344 C 10.359375 100.773438 9.273438 100.089844 8.296875 98.921875 C 7.820312 98.351562 7.476562 97.789062 7.226562 97.304688 C 7.347656 97.539062 7.109375 98.382812 7.09375 98.671875 C 7.066406 99.105469 7.050781 99.542969 7.054688 99.980469 C 7.0625 100.996094 7.164062 101.992188 7.242188 102.410156 C 7.554688 104.035156 9.273438 106 11.511719 106.679688 C 14.121094 107.472656 16.835938 106.300781 18.671875 104.421875 C 20.714844 102.332031 21.65625 99.175781 22.816406 96.550781 C 24.234375 93.339844 25.652344 90.128906 27.085938 86.925781 C 28.457031 83.859375 29.828125 80.792969 31.199219 77.726562 L 35.46875 77.511719 C 36.695312 77.449219 37.640625 76.40625 37.578125 75.175781 C 37.519531 73.949219 36.457031 73.003906 35.246094 73.066406 Z M 35.246094 73.066406" style="stroke:none;fill-rule:nonzero;fill:#4dc1b7;fill-opacity:1;"></path><path d="M 68.972656 73.066406 L 71.195312 72.613281 L 66.929688 68.046875 C 66.089844 67.148438 66.136719 65.742188 67.035156 64.902344 C 67.933594 64.0625 69.339844 64.109375 70.179688 65.007812 L 74.914062 70.5625 L 73.195312 64.054688 C 72.882812 62.863281 73.597656 61.648438 74.785156 61.339844 C 75.972656 61.027344 77.191406 61.738281 77.5 62.929688 L 79.292969 69.785156 L 80.761719 66.902344 C 81.316406 65.804688 82.65625 65.371094 83.753906 65.929688 C 84.851562 66.488281 85.285156 67.828125 84.726562 68.921875 L 81.671875 74.914062 C 85.390625 83.511719 89.113281 92.109375 92.828125 100.707031 C 92.902344 100.875 93 101.027344 93.113281 101.152344 C 93.859375 100.773438 94.945312 100.09375 95.921875 98.921875 C 96.398438 98.351562 96.742188 97.789062 96.992188 97.304688 C 96.871094 97.542969 97.109375 98.386719 97.125 98.671875 C 97.152344 99.109375 97.167969 99.542969 97.164062 99.980469 C 97.15625 100.996094 97.054688 101.996094 96.976562 102.410156 C 96.664062 104.035156 94.945312 106.003906 92.710938 106.679688 C 90.097656 107.472656 87.382812 106.300781 85.546875 104.425781 C 83.503906 102.332031 82.5625 99.175781 81.402344 96.550781 C 79.984375 93.339844 78.566406 90.128906 77.136719 86.925781 C 75.761719 83.859375 74.390625 80.792969 73.019531 77.726562 L 68.75 77.511719 C 67.523438 77.453125 66.578125 76.40625 66.640625 75.179688 C 66.699219 73.953125 67.761719 73.003906 68.972656 73.066406 Z M 68.972656 73.066406" style="stroke:none;fill-rule:nonzero;fill:#4dc1b7;fill-opacity:1;"></path><path d="M 14.191406 42.589844 L 18.550781 39.265625 L 24.210938 46.691406 L 19.851562 50.015625 Z M 14.191406 42.589844" style="stroke:none;fill-rule:nonzero;fill:#efab7f;fill-opacity:1;"></path><path d="M 6.191406 15.820312 L 98.0625 15.820312 C 98.261719 15.820312 98.453125 15.859375 98.640625 15.9375 C 98.824219 16.011719 98.984375 16.121094 99.125 16.261719 C 99.269531 16.402344 99.375 16.566406 99.453125 16.75 C 99.527344 16.933594 99.566406 17.125 99.566406 17.324219 L 99.566406 23.675781 C 99.566406 23.875 99.527344 24.070312 99.453125 24.253906 C 99.375 24.4375 99.269531 24.597656 99.125 24.742188 C 98.984375 24.882812 98.824219 24.988281 98.640625 25.066406 C 98.453125 25.140625 98.261719 25.179688 98.0625 25.179688 L 6.191406 25.179688 C 5.992188 25.179688 5.800781 25.140625 5.617188 25.066406 C 5.433594 24.988281 5.269531 24.882812 5.128906 24.742188 C 4.988281 24.597656 4.878906 24.4375 4.804688 24.253906 C 4.726562 24.070312 4.6875 23.875 4.6875 23.675781 L 4.6875 17.324219 C 4.6875 17.125 4.726562 16.933594 4.804688 16.75 C 4.878906 16.566406 4.988281 16.402344 5.128906 16.261719 C 5.269531 16.121094 5.433594 16.011719 5.617188 15.9375 C 5.800781 15.859375 5.992188 15.820312 6.191406 15.820312 Z M 6.191406 15.820312" style="stroke:none;fill-rule:nonzero;fill:#4dc1b7;fill-opacity:1;"></path><path d="M 161.71875 18.507812 C 159.917969 18.507812 158.582031 17.953125 157.710938 16.847656 C 156.839844 15.742188 156.40625 14.507812 156.40625 13.140625 C 156.40625 11.773438 156.855469 10.539062 157.753906 9.429688 C 158.65625 8.328125 159.976562 7.773438 161.71875 7.773438 C 163.457031 7.773438 164.867188 8.328125 165.769531 9.429688 C 166.667969 10.535156 167.117188 11.773438 167.117188 13.140625 C 167.117188 14.503906 166.667969 15.742188 165.769531 16.847656 C 164.867188 17.953125 163.515625 18.507812 161.71875 18.507812 Z M 157.363281 25.222656 L 166.074219 25.222656 L 166.074219 68.851562 L 157.363281 68.851562 Z M 157.363281 25.222656" style="stroke:none;fill-rule:nonzero;fill:#4dc1b7;fill-opacity:1;"></path><path d="M 206.558594 83.59375 L 206.558594 35.433594 C 206.558594 34.734375 206.339844 34.167969 205.90625 33.730469 C 205.46875 33.296875 204.902344 33.078125 204.207031 33.078125 L 181.699219 33.078125 L 181.699219 33.953125 C 182.800781 33.953125 183.902344 34.285156 185.007812 34.953125 C 186.109375 35.625 186.664062 36.800781 186.664062 38.488281 L 186.664062 83.59375 L 177.953125 83.59375 L 177.953125 35.433594 C 177.953125 34.734375 177.734375 34.167969 177.300781 33.730469 C 176.863281 33.296875 176.296875 33.078125 175.601562 33.078125 L 173.25 33.078125 L 173.25 25.226562 L 177.953125 25.226562 L 177.953125 19.726562 C 177.953125 15.773438 179.027344 12.75 181.175781 10.65625 C 183.320312 8.5625 186.3125 7.515625 190.144531 7.515625 L 195.632812 7.515625 L 195.632812 16.238281 L 192.410156 16.238281 C 189.914062 16.238281 188.300781 16.921875 187.578125 18.289062 C 186.847656 19.65625 186.546875 21.96875 186.664062 25.226562 L 206.558594 25.226562 L 206.558594 13.097656 L 215.269531 13.097656 L 215.269531 25.226562 L 220.929688 25.226562 L 220.929688 33.078125 L 210.304688 33.078125 L 210.304688 33.953125 C 211.40625 33.953125 212.507812 34.289062 213.613281 34.957031 C 214.714844 35.625 215.269531 36.800781 215.269531 38.488281 L 215.269531 83.59375 Z M 206.558594 83.59375" style="stroke:none;fill-rule:nonzero;fill:#4dc1b7;fill-opacity:1;"></path><path d="M 246.542969 83.644531 C 241.953125 83.644531 238.121094 82.527344 235.042969 80.289062 C 231.964844 78.046875 229.628906 75.242188 228.03125 71.867188 C 226.433594 68.496094 225.605469 64.859375 225.546875 60.960938 C 225.488281 57.066406 226.230469 53.429688 227.769531 50.054688 C 229.308594 46.683594 231.632812 43.875 234.738281 41.636719 C 237.84375 39.398438 241.777344 38.277344 246.542969 38.277344 C 251.304688 38.277344 255.238281 39.398438 258.34375 41.636719 C 261.449219 43.875 263.773438 46.683594 265.3125 50.054688 C 266.847656 53.429688 267.589844 57.066406 267.53125 60.960938 C 267.472656 64.859375 266.648438 68.496094 265.050781 71.867188 C 263.453125 75.242188 261.117188 78.046875 258.039062 80.289062 C 254.957031 82.527344 251.128906 83.644531 246.539062 83.644531 Z M 246.542969 47.871094 C 243.929688 47.871094 241.75 48.511719 240.007812 49.792969 C 238.265625 51.070312 236.976562 52.6875 236.132812 54.636719 C 235.292969 56.585938 234.871094 58.691406 234.871094 60.960938 C 234.871094 63.230469 235.304688 65.339844 236.175781 67.285156 C 237.046875 69.234375 238.339844 70.851562 240.054688 72.128906 C 241.765625 73.410156 243.898438 74.046875 246.453125 74.046875 C 249.011719 74.046875 251.140625 73.410156 252.855469 72.128906 C 254.570312 70.851562 255.863281 69.234375 256.734375 67.285156 C 257.605469 65.335938 258.023438 63.230469 257.996094 60.960938 C 257.964844 58.691406 257.53125 56.585938 256.6875 54.636719 C 255.847656 52.6875 254.582031 51.070312 252.902344 49.792969 C 251.214844 48.511719 249.097656 47.871094 246.542969 47.871094 Z M 246.542969 47.871094" style="stroke:none;fill-rule:nonzero;fill:#4dc1b7;fill-opacity:1;"></path><path d="M 293.816406 38.273438 C 298.40625 38.273438 302.238281 39.394531 305.316406 41.632812 C 308.394531 43.871094 310.730469 46.679688 312.328125 50.054688 C 313.925781 53.425781 314.753906 57.0625 314.8125 60.957031 C 314.871094 64.855469 314.128906 68.492188 312.589844 71.867188 C 311.050781 75.238281 308.726562 78.042969 305.621094 80.285156 C 302.515625 82.523438 298.582031 83.644531 293.816406 83.644531 C 289.054688 83.644531 285.121094 82.523438 282.015625 80.285156 C 278.910156 78.042969 276.585938 75.238281 275.046875 71.867188 C 273.511719 68.492188 272.769531 64.855469 272.828125 60.957031 C 272.886719 57.0625 273.710938 53.425781 275.308594 50.054688 C 276.90625 46.679688 279.246094 43.871094 282.320312 41.632812 C 285.402344 39.394531 289.230469 38.273438 293.820312 38.273438 Z M 293.816406 74.046875 C 296.429688 74.046875 298.609375 73.40625 300.351562 72.128906 C 302.09375 70.847656 303.382812 69.234375 304.226562 67.285156 C 305.066406 65.335938 305.488281 63.230469 305.488281 60.960938 C 305.488281 58.691406 305.054688 56.582031 304.183594 54.636719 C 303.3125 52.683594 302.019531 51.070312 300.304688 49.792969 C 298.59375 48.511719 296.460938 47.871094 293.90625 47.871094 C 291.351562 47.871094 289.21875 48.511719 287.503906 49.792969 C 285.792969 51.070312 284.496094 52.683594 283.625 54.636719 C 282.753906 56.582031 282.335938 58.691406 282.363281 60.960938 C 282.394531 63.226562 282.828125 65.335938 283.671875 67.285156 C 284.515625 69.234375 285.777344 70.847656 287.457031 72.128906 C 289.144531 73.40625 291.261719 74.046875 293.816406 74.046875 Z M 293.816406 74.046875" style="stroke:none;fill-rule:nonzero;fill:#4dc1b7;fill-opacity:1;"></path><path d="M 166.675781 75.214844 C 161.777344 75.238281 156.734375 75.105469 151.863281 74.96875 C 150.414062 74.929688 148.949219 74.890625 147.476562 74.859375 L 147.398438 25.21875 L 138.683594 25.21875 L 138.683594 26.792969 C 138.683594 27.726562 138.28125 27.933594 137.464844 27.40625 C 136.132812 26.535156 134.691406 25.804688 133.15625 25.21875 C 131.613281 24.644531 129.945312 24.347656 128.148438 24.347656 C 123.90625 24.347656 120.324219 25.324219 117.386719 27.269531 C 114.453125 29.226562 112.191406 31.679688 110.597656 34.648438 C 108.996094 37.617188 108.039062 40.871094 107.71875 44.414062 C 107.398438 47.964844 107.695312 51.355469 108.589844 54.585938 C 109.527344 57.96875 111.371094 62.035156 114.152344 64.269531 C 120.5 69.359375 129.210938 71.121094 136.984375 68.636719 C 139.125 67.953125 138.714844 69.636719 138.773438 71.296875 C 138.789062 71.480469 138.796875 71.679688 138.800781 71.867188 C 138.839844 72.820312 138.882812 73.769531 138.921875 74.722656 L 138.773438 74.722656 C 135.453125 74.71875 132.121094 74.769531 128.800781 74.929688 C 121.71875 75.273438 116.40625 78.304688 113.847656 83.476562 C 111.628906 87.964844 111.878906 93.414062 114.5 97.679688 C 116.269531 100.566406 119.128906 102.9375 122.769531 104.542969 C 125.21875 105.628906 128.085938 106.289062 130.964844 106.289062 C 134.886719 106.289062 138.828125 105.070312 141.769531 102.019531 C 143.832031 99.886719 145.257812 96.988281 146.121094 93.15625 C 146.863281 89.867188 147.195312 86.53125 147.3125 83.183594 C 148.765625 83.222656 150.210938 83.261719 151.640625 83.296875 C 156.582031 83.433594 161.6875 83.566406 166.722656 83.542969 L 166.675781 75.210938 Z M 117.46875 43.890625 C 117.617188 43.054688 117.804688 42.265625 118.046875 41.539062 C 118.109375 41.355469 118.175781 41.175781 118.246094 41 L 118.246094 40.996094 C 118.316406 40.820312 118.386719 40.648438 118.457031 40.476562 C 118.769531 39.734375 119.121094 39.058594 119.507812 38.445312 C 119.570312 38.339844 119.632812 38.246094 119.699219 38.140625 C 119.832031 37.949219 119.960938 37.757812 120.101562 37.578125 C 120.171875 37.480469 120.242188 37.398438 120.3125 37.308594 C 120.695312 36.835938 121.113281 36.417969 121.554688 36.046875 C 121.773438 35.859375 121.996094 35.695312 122.234375 35.535156 C 122.464844 35.375 122.699219 35.226562 122.941406 35.09375 C 123.132812 34.984375 123.332031 34.867188 123.53125 34.777344 C 124.054688 34.539062 124.582031 34.367188 125.109375 34.234375 C 125.820312 34.054688 126.542969 33.953125 127.28125 33.953125 C 127.644531 33.953125 128.003906 33.976562 128.359375 34.03125 C 129.269531 34.144531 130.179688 34.40625 131.066406 34.824219 C 131.273438 34.921875 131.472656 35.03125 131.664062 35.144531 C 131.917969 35.285156 132.164062 35.433594 132.40625 35.601562 C 132.597656 35.730469 132.78125 35.863281 132.960938 36.003906 C 133.011719 36.042969 133.058594 36.082031 133.109375 36.125 L 133.117188 36.125 C 133.164062 36.171875 133.21875 36.210938 133.269531 36.261719 C 133.441406 36.402344 133.613281 36.5625 133.78125 36.722656 C 133.890625 36.824219 133.996094 36.933594 134.105469 37.050781 C 134.214844 37.160156 134.316406 37.273438 134.417969 37.394531 L 134.417969 37.402344 C 135.039062 38.105469 135.582031 38.925781 136.050781 39.851562 C 136.339844 40.40625 136.589844 40.996094 136.820312 41.632812 C 136.894531 41.84375 136.964844 42.054688 137.03125 42.277344 C 137.101562 42.496094 137.15625 42.71875 137.214844 42.945312 C 137.558594 44.3125 137.734375 45.816406 137.734375 47.476562 C 137.734375 49.046875 137.558594 50.484375 137.214844 51.769531 C 137.15625 51.988281 137.09375 52.195312 137.03125 52.40625 C 136.964844 52.613281 136.894531 52.816406 136.820312 53.015625 C 136.644531 53.476562 136.453125 53.910156 136.242188 54.328125 C 136.171875 54.464844 136.101562 54.605469 136.03125 54.734375 C 135.890625 55.003906 135.738281 55.257812 135.578125 55.507812 C 135.421875 55.757812 135.257812 55.996094 135.085938 56.226562 C 134.871094 56.507812 134.65625 56.777344 134.417969 57.035156 C 133.433594 58.109375 132.3125 58.925781 131.066406 59.476562 C 130.757812 59.609375 130.445312 59.730469 130.132812 59.835938 C 129.894531 59.914062 129.652344 59.980469 129.410156 60.039062 C 129.0625 60.125 128.710938 60.1875 128.359375 60.234375 C 127.976562 60.277344 127.585938 60.304688 127.1875 60.304688 C 126.597656 60.304688 126.023438 60.246094 125.453125 60.128906 C 125.03125 60.046875 124.609375 59.929688 124.195312 59.785156 C 124.050781 59.738281 123.917969 59.679688 123.777344 59.628906 C 123.683594 59.59375 123.585938 59.558594 123.488281 59.519531 C 122.441406 59.058594 121.507812 58.398438 120.664062 57.542969 C 120.546875 57.417969 120.425781 57.292969 120.308594 57.164062 C 119.914062 56.714844 119.554688 56.207031 119.222656 55.65625 C 119.082031 55.425781 118.941406 55.183594 118.8125 54.925781 C 118.671875 54.65625 118.539062 54.382812 118.410156 54.09375 C 118.273438 53.804688 118.160156 53.503906 118.042969 53.195312 C 117.800781 52.523438 117.621094 51.792969 117.480469 51.023438 C 117.378906 50.492188 117.300781 49.941406 117.25 49.363281 C 117.199219 48.789062 117.167969 48.191406 117.167969 47.570312 C 117.167969 46.238281 117.277344 45.019531 117.46875 43.898438 Z M 138.011719 91.320312 C 137.945312 91.59375 137.875 91.867188 137.796875 92.140625 C 136.84375 95.511719 135.019531 97.796875 131.347656 97.929688 C 127.796875 98.054688 123.519531 96.46875 121.585938 93.316406 C 120.484375 91.53125 120.371094 89.0625 121.304688 87.179688 C 122.789062 84.179688 126.421875 83.390625 129.207031 83.253906 C 132.148438 83.109375 135.121094 83.054688 138.109375 83.054688 C 138.433594 83.054688 139 82.875 138.980469 83.40625 C 138.875 86.023438 138.640625 88.75 138.011719 91.320312 Z M 138.011719 91.320312" style="stroke:none;fill-rule:nonzero;fill:#4dc1b7;fill-opacity:1;"></path><path d="M 138.921875 74.726562 L 138.777344 74.726562 L 138.777344 71.296875 C 138.789062 71.480469 138.796875 71.679688 138.800781 71.867188 C 138.839844 72.820312 138.882812 73.769531 138.921875 74.726562 Z M 138.921875 74.726562" style="stroke:none;fill-rule:nonzero;fill:#4dc1b7;fill-opacity:1;"></path><path d="M 134.417969 37.402344 C 135.039062 38.105469 135.582031 38.925781 136.050781 39.847656 C 135.574219 38.925781 135.03125 38.113281 134.417969 37.402344 Z M 134.417969 37.402344" style="stroke:none;fill-rule:nonzero;fill:#4dc1b7;fill-opacity:1;"></path><path d="M 136.8125 53.011719 C 136.886719 52.8125 136.957031 52.609375 137.027344 52.402344 C 136.964844 52.609375 136.894531 52.8125 136.816406 53.011719 C 136.644531 53.472656 136.453125 53.910156 136.242188 54.328125 C 136.445312 53.910156 136.636719 53.472656 136.8125 53.011719 Z M 136.8125 53.011719" style="stroke:none;fill-rule:nonzero;fill:#4dc1b7;fill-opacity:1;"></path><path d="M 136.816406 41.628906 C 136.894531 41.84375 136.964844 42.054688 137.027344 42.277344 C 136.957031 42.054688 136.886719 41.839844 136.8125 41.628906 C 136.582031 40.996094 136.332031 40.40625 136.050781 39.847656 C 136.335938 40.40625 136.585938 40.996094 136.816406 41.628906 Z M 136.816406 41.628906" style="stroke:none;fill-rule:nonzero;fill:#4dc1b7;fill-opacity:1;"></path><path d="M 137.214844 51.769531 C 137.558594 50.480469 137.726562 49.046875 137.726562 47.476562 C 137.726562 45.816406 137.558594 44.308594 137.214844 42.945312 C 137.558594 44.308594 137.730469 45.816406 137.730469 47.476562 C 137.730469 49.046875 137.558594 50.480469 137.214844 51.769531 Z M 137.214844 51.769531" style="stroke:none;fill-rule:nonzero;fill:#4dc1b7;fill-opacity:1;"></path><path d="M 124.195312 59.78125 C 124.609375 59.925781 125.03125 60.042969 125.453125 60.125 C 125.027344 60.042969 124.609375 59.925781 124.195312 59.78125 Z M 124.195312 59.78125" style="stroke:none;fill-rule:nonzero;fill:#4dc1b7;fill-opacity:1;"></path><path d="M 116.644531 66.214844 C 116.644531 66.214844 116.644531 66.222656 116.652344 66.222656 C 116.632812 66.214844 116.621094 66.210938 116.601562 66.195312 C 116.589844 66.191406 116.574219 66.183594 116.570312 66.179688 L 116.570312 66.171875 C 116.589844 66.183594 116.613281 66.195312 116.644531 66.21875 Z M 116.644531 66.214844" style="stroke:none;fill-rule:nonzero;fill:#4dc1b7;fill-opacity:1;"></path><path d="M 119.992188 67.757812 C 118.792969 67.375 117.679688 66.863281 116.652344 66.222656 C 116.742188 66.273438 116.863281 66.335938 117.011719 66.414062 C 117.097656 66.457031 117.203125 66.515625 117.3125 66.566406 C 117.355469 66.59375 117.40625 66.617188 117.453125 66.636719 C 117.527344 66.675781 117.605469 66.714844 117.6875 66.757812 C 117.796875 66.808594 117.917969 66.867188 118.046875 66.925781 C 118.078125 66.945312 118.113281 66.957031 118.148438 66.976562 C 118.277344 67.035156 118.417969 67.097656 118.566406 67.167969 L 118.570312 67.167969 C 118.714844 67.234375 118.867188 67.296875 119.027344 67.367188 L 119.03125 67.367188 C 119.1875 67.429688 119.351562 67.503906 119.527344 67.574219 C 119.671875 67.636719 119.832031 67.695312 119.992188 67.757812 Z M 119.992188 67.757812" style="stroke:none;fill-rule:nonzero;fill:#4dc1b7;fill-opacity:1;"></path><path d="M 121.007812 68.066406 C 120.988281 68.082031 120.96875 68.101562 120.953125 68.113281 C 120.648438 68.011719 120.375 67.90625 120.101562 67.804688 C 120.09375 67.796875 120.082031 67.796875 120.074219 67.792969 C 120.226562 67.84375 120.382812 67.886719 120.535156 67.933594 C 120.6875 67.984375 120.847656 68.023438 121.007812 68.066406 Z M 121.007812 68.066406" style="stroke:none;fill-rule:nonzero;fill:#4dc1b7;fill-opacity:1;"></path><path d="M 116.5 66.132812 C 116.5 66.132812 116.503906 66.136719 116.511719 66.136719 L 116.511719 66.144531 C 116.511719 66.144531 116.503906 66.136719 116.5 66.132812 Z M 116.5 66.132812" style="stroke:none;fill-rule:nonzero;fill:#4dc1b7;fill-opacity:1;"></path><path d="M 116.566406 66.171875 C 116.585938 66.183594 116.613281 66.195312 116.644531 66.214844 C 116.625 66.210938 116.613281 66.203125 116.597656 66.195312 C 116.585938 66.191406 116.574219 66.183594 116.566406 66.179688 Z M 116.566406 66.171875" style="stroke:none;fill-rule:nonzero;fill:#4dc1b7;fill-opacity:1;"></path><path d="M 120.535156 67.933594 C 120.386719 67.886719 120.238281 67.847656 120.097656 67.804688 C 120.09375 67.796875 120.082031 67.796875 120.074219 67.792969 C 120.226562 67.84375 120.382812 67.886719 120.535156 67.933594 Z M 120.535156 67.933594" style="stroke:none;fill-rule:nonzero;fill:#4dc1b7;fill-opacity:1;"></path><path d="M 116.511719 66.136719 L 116.511719 66.144531 C 116.511719 66.144531 116.503906 66.136719 116.496094 66.132812 C 116.503906 66.132812 116.503906 66.136719 116.511719 66.136719 Z M 116.511719 66.136719" style="stroke:none;fill-rule:nonzero;fill:#4dc1b7;fill-opacity:1;"></path><path d="M 120.535156 67.933594 C 120.386719 67.886719 120.238281 67.847656 120.097656 67.804688 C 120.09375 67.796875 120.082031 67.796875 120.074219 67.792969 C 120.226562 67.84375 120.382812 67.886719 120.535156 67.933594 Z M 120.535156 67.933594" style="stroke:none;fill-rule:nonzero;fill:#4dc1b7;fill-opacity:1;"></path><path d="M 308.214844 22.253906 C 306.757812 25.910156 305.296875 29.566406 303.832031 33.222656 C 301.972656 32.511719 299.949219 32.03125 297.78125 31.777344 L 297.78125 20.59375 C 299.039062 20.375 300.972656 20.195312 303.261719 20.582031 C 305.433594 20.941406 307.117188 21.671875 308.214844 22.253906 Z M 308.214844 22.253906" style="stroke:none;fill-rule:nonzero;fill:#4dc1b7;fill-opacity:1;"></path><path d="M 324.078125 33.683594 C 320.75 36.0625 317.429688 38.433594 314.097656 40.808594 C 312.828125 39.296875 311.410156 37.914062 309.816406 36.65625 L 316.222656 26.554688 C 317.308594 26.972656 318.855469 27.710938 320.417969 29.03125 C 322.402344 30.695312 323.503906 32.535156 324.078125 33.683594 Z M 324.078125 33.683594" style="stroke:none;fill-rule:nonzero;fill:#4dc1b7;fill-opacity:1;"></path><path d="M 331.960938 51.800781 C 327.984375 52.097656 324.019531 52.390625 320.046875 52.6875 C 319.539062 50.746094 318.863281 48.859375 318.015625 47.035156 L 328.929688 41.632812 C 329.648438 42.546875 330.589844 43.984375 331.242188 45.925781 C 332.074219 48.378906 332.058594 50.527344 331.957031 51.800781 Z M 331.960938 51.800781" style="stroke:none;fill-rule:nonzero;fill:#4dc1b7;fill-opacity:1;"></path><g style="fill:#ed618f;fill-opacity:1;"><g transform="translate(227.63158, 108.892516)"><path d="M 1.691406 0 C 1.382812 0 1.117188 -0.109375 0.894531 -0.332031 C 0.675781 -0.546875 0.5625 -0.808594 0.5625 -1.117188 C 0.5625 -1.425781 0.675781 -1.691406 0.894531 -1.914062 C 1.117188 -2.128906 1.382812 -2.234375 1.691406 -2.234375 L 6.59375 -2.234375 C 7.460938 -2.234375 8.136719 -2.445312 8.617188 -2.863281 C 9.101562 -3.285156 9.355469 -3.878906 9.378906 -4.644531 C 9.402344 -5.648438 9.164062 -6.3125 8.671875 -6.636719 C 8.265625 -6.902344 7.371094 -7.082031 5.984375 -7.179688 C 4.355469 -7.289062 3.179688 -7.542969 2.457031 -7.941406 C 1.1875 -8.640625 0.558594 -9.90625 0.5625 -11.734375 C 0.578125 -12.90625 0.953125 -13.925781 1.679688 -14.789062 C 2.476562 -15.730469 3.492188 -16.203125 4.722656 -16.203125 L 9.488281 -16.203125 C 9.800781 -16.203125 10.066406 -16.09375 10.285156 -15.871094 C 10.5 -15.65625 10.605469 -15.394531 10.605469 -15.085938 C 10.605469 -14.777344 10.5 -14.511719 10.285156 -14.289062 C 10.066406 -14.078125 9.800781 -13.96875 9.488281 -13.96875 L 4.722656 -13.96875 C 4.097656 -13.96875 3.605469 -13.699219 3.25 -13.160156 C 2.957031 -12.734375 2.808594 -12.25 2.808594 -11.714844 C 2.800781 -10.804688 3.039062 -10.207031 3.515625 -9.910156 C 3.914062 -9.675781 4.789062 -9.507812 6.136719 -9.414062 C 7.804688 -9.292969 9.007812 -9.023438 9.746094 -8.605469 C 11.035156 -7.867188 11.65625 -6.53125 11.613281 -4.589844 C 11.585938 -3.21875 11.109375 -2.109375 10.1875 -1.261719 C 9.265625 -0.421875 8.066406 0 6.59375 0 Z M 1.691406 0" style="stroke:none"></path></g></g><g style="fill:#ed618f;fill-opacity:1;"><g transform="translate(239.864479, 108.892516)"><path d="M 2.554688 -11.757812 C 2.246094 -11.757812 1.984375 -11.648438 1.769531 -11.4375 C 1.546875 -11.214844 1.4375 -10.949219 1.4375 -10.640625 L 1.4375 -1.128906 C 1.4375 -0.820312 1.546875 -0.554688 1.769531 -0.332031 C 1.984375 -0.109375 2.246094 0 2.554688 0 C 2.863281 0 3.128906 -0.109375 3.351562 -0.332031 C 3.566406 -0.554688 3.671875 -0.820312 3.671875 -1.128906 L 3.671875 -10.640625 C 3.671875 -10.949219 3.566406 -11.214844 3.351562 -11.4375 C 3.128906 -11.648438 2.863281 -11.757812 2.554688 -11.757812 Z M 1.328125 -15.085938 C 1.328125 -14.777344 1.4375 -14.515625 1.660156 -14.300781 C 1.878906 -14.078125 2.144531 -13.96875 2.457031 -13.96875 L 2.621094 -13.96875 C 2.929688 -13.96875 3.195312 -14.078125 3.417969 -14.300781 C 3.640625 -14.515625 3.75 -14.777344 3.75 -15.085938 C 3.75 -15.394531 3.640625 -15.660156 3.417969 -15.882812 C 3.195312 -16.097656 2.929688 -16.203125 2.621094 -16.203125 L 2.457031 -16.203125 C 2.144531 -16.203125 1.878906 -16.097656 1.660156 -15.882812 C 1.4375 -15.660156 1.328125 -15.394531 1.328125 -15.085938 Z M 1.328125 -15.085938" style="stroke:none"></path></g></g><g style="fill:#ed618f;fill-opacity:1;"><g transform="translate(244.941242, 108.892516)"><path d="M 6.59375 -11.757812 C 5.390625 -11.757812 4.304688 -11.378906 3.339844 -10.617188 L 3.339844 -10.640625 C 3.339844 -10.949219 3.234375 -11.214844 3.019531 -11.4375 C 2.796875 -11.648438 2.53125 -11.757812 2.222656 -11.757812 C 1.914062 -11.757812 1.652344 -11.648438 1.4375 -11.4375 C 1.214844 -11.214844 1.105469 -10.949219 1.105469 -10.640625 L 1.105469 -1.128906 C 1.105469 -0.820312 1.214844 -0.554688 1.4375 -0.332031 C 1.652344 -0.109375 1.914062 0 2.222656 0 C 2.53125 0 2.796875 -0.109375 3.019531 -0.332031 C 3.234375 -0.554688 3.339844 -0.820312 3.339844 -1.128906 L 3.339844 -5.882812 C 3.339844 -6.886719 3.660156 -7.746094 4.300781 -8.460938 C 4.9375 -9.167969 5.699219 -9.523438 6.59375 -9.523438 C 7.484375 -9.523438 8.246094 -9.164062 8.882812 -8.449219 C 9.515625 -7.742188 9.832031 -6.886719 9.832031 -5.882812 L 9.832031 -1.128906 C 9.832031 -0.820312 9.945312 -0.554688 10.164062 -0.332031 C 10.386719 -0.109375 10.652344 0 10.960938 0 C 11.269531 0 11.53125 -0.109375 11.746094 -0.332031 C 11.96875 -0.554688 12.078125 -0.820312 12.078125 -1.128906 L 12.078125 -5.882812 C 12.078125 -7.507812 11.539062 -8.894531 10.464844 -10.042969 C 9.394531 -11.1875 8.105469 -11.757812 6.59375 -11.757812 Z M 6.59375 -11.757812" style="stroke:none"></path></g></g><g style="fill:#ed618f;fill-opacity:1;"><g transform="translate(258.125343, 108.892516)"><path d="M 8.992188 -3.296875 C 8.285156 -2.59375 7.433594 -2.246094 6.4375 -2.246094 C 5.425781 -2.246094 4.566406 -2.597656 3.859375 -3.308594 C 3.144531 -4.023438 2.789062 -4.882812 2.789062 -5.882812 C 2.789062 -6.886719 3.144531 -7.742188 3.859375 -8.449219 C 4.566406 -9.164062 5.425781 -9.523438 6.4375 -9.523438 C 7.425781 -9.523438 8.273438 -9.175781 8.980469 -8.484375 C 9.203125 -8.261719 9.46875 -8.15625 9.777344 -8.164062 C 10.085938 -8.164062 10.347656 -8.273438 10.5625 -8.496094 C 10.785156 -8.714844 10.890625 -8.980469 10.882812 -9.289062 C 10.882812 -9.601562 10.773438 -9.863281 10.550781 -10.074219 C 9.410156 -11.195312 8.039062 -11.757812 6.4375 -11.757812 C 4.816406 -11.757812 3.429688 -11.1875 2.277344 -10.042969 C 1.128906 -8.894531 0.554688 -7.507812 0.554688 -5.882812 C 0.554688 -4.261719 1.128906 -2.875 2.277344 -1.726562 C 3.429688 -0.574219 4.816406 0 6.4375 0 C 8.042969 0 9.417969 -0.5625 10.5625 -1.691406 C 10.785156 -1.914062 10.894531 -2.179688 10.894531 -2.488281 C 10.894531 -2.796875 10.789062 -3.058594 10.574219 -3.273438 C 10.351562 -3.496094 10.085938 -3.609375 9.777344 -3.617188 C 9.46875 -3.617188 9.207031 -3.511719 8.992188 -3.296875 Z M 8.992188 -3.296875" style="stroke:none"></path></g></g><g style="fill:#ed618f;fill-opacity:1;"><g transform="translate(269.462343, 108.892516)"><path d="M 11.921875 -7.984375 C 11.921875 -7.984375 11.921875 -7.988281 11.921875 -7.996094 C 11.488281 -9.125 10.765625 -10.035156 9.753906 -10.730469 C 8.746094 -11.414062 7.640625 -11.757812 6.4375 -11.757812 C 4.816406 -11.757812 3.429688 -11.1875 2.277344 -10.042969 C 1.128906 -8.894531 0.554688 -7.507812 0.554688 -5.882812 C 0.554688 -4.261719 1.128906 -2.875 2.277344 -1.726562 C 3.429688 -0.574219 4.816406 0 6.4375 0 C 8.347656 0 9.890625 -0.753906 11.070312 -2.265625 C 11.261719 -2.511719 11.339844 -2.789062 11.304688 -3.097656 C 11.257812 -3.40625 11.117188 -3.652344 10.871094 -3.839844 C 10.628906 -4.03125 10.355469 -4.105469 10.054688 -4.070312 C 9.746094 -4.035156 9.492188 -3.894531 9.300781 -3.648438 C 8.570312 -2.714844 7.617188 -2.246094 6.4375 -2.246094 C 5.425781 -2.246094 4.566406 -2.597656 3.859375 -3.308594 C 3.144531 -4.023438 2.789062 -4.882812 2.789062 -5.882812 C 2.789062 -6.886719 3.144531 -7.742188 3.859375 -8.449219 C 4.566406 -9.164062 5.425781 -9.523438 6.4375 -9.523438 C 7.601562 -9.523438 8.554688 -9.058594 9.289062 -8.128906 L 4.214844 -6.09375 C 3.925781 -5.984375 3.722656 -5.785156 3.605469 -5.496094 C 3.480469 -5.210938 3.476562 -4.925781 3.59375 -4.644531 C 3.777344 -4.171875 4.125 -3.9375 4.632812 -3.9375 C 4.773438 -3.9375 4.910156 -3.964844 5.042969 -4.015625 L 11.304688 -6.527344 C 11.589844 -6.636719 11.792969 -6.835938 11.914062 -7.121094 C 12.039062 -7.410156 12.042969 -7.695312 11.921875 -7.976562 Z M 11.921875 -7.984375" style="stroke:none"></path></g></g><g style="fill:#ed618f;fill-opacity:1;"><g transform="translate(282.11554, 108.892516)"><path d="" style="stroke:none"></path></g></g><g style="fill:#ed618f;fill-opacity:1;"><g transform="translate(287.667905, 108.892516)"><path d="M 8.273438 -4.777344 C 9.675781 -5.574219 10.636719 -6.273438 11.160156 -6.878906 C 12.066406 -7.933594 12.519531 -9.15625 12.519531 -10.550781 C 12.519531 -12.113281 11.964844 -13.445312 10.851562 -14.542969 C 9.746094 -15.652344 8.414062 -16.203125 6.859375 -16.203125 C 5.292969 -16.203125 3.960938 -15.652344 2.855469 -14.542969 C 1.746094 -13.445312 1.195312 -12.113281 1.195312 -10.550781 C 1.195312 -10.242188 1.300781 -9.980469 1.515625 -9.765625 C 1.738281 -9.546875 2 -9.433594 2.3125 -9.433594 C 2.621094 -9.433594 2.882812 -9.546875 3.097656 -9.765625 C 3.316406 -9.980469 3.429688 -10.242188 3.429688 -10.550781 C 3.429688 -11.496094 3.765625 -12.300781 4.433594 -12.964844 C 5.105469 -13.632812 5.914062 -13.96875 6.859375 -13.96875 C 7.800781 -13.96875 8.605469 -13.632812 9.269531 -12.964844 C 9.941406 -12.300781 10.273438 -11.496094 10.273438 -10.550781 C 10.273438 -9.710938 10.003906 -8.972656 9.457031 -8.339844 C 9.109375 -7.933594 8.347656 -7.394531 7.167969 -6.726562 C 6.730469 -6.472656 6.414062 -6.285156 6.214844 -6.160156 L 2.191406 -3.660156 C 1.804688 -3.425781 1.53125 -3.113281 1.359375 -2.722656 C 1.191406 -2.328125 1.152344 -1.929688 1.25 -1.515625 C 1.351562 -1.066406 1.585938 -0.699219 1.945312 -0.421875 C 2.300781 -0.140625 2.707031 0 3.164062 0 L 11.390625 0 C 11.703125 0 11.96875 -0.109375 12.1875 -0.332031 C 12.410156 -0.554688 12.519531 -0.820312 12.519531 -1.128906 C 12.519531 -1.429688 12.410156 -1.691406 12.1875 -1.914062 C 11.96875 -2.132812 11.703125 -2.246094 11.390625 -2.246094 L 4.148438 -2.246094 L 7.398438 -4.269531 C 7.578125 -4.371094 7.867188 -4.542969 8.273438 -4.777344 Z M 8.273438 -4.777344" style="stroke:none"></path></g></g><g style="fill:#ed618f;fill-opacity:1;"><g transform="translate(301.294425, 108.892516)"><path d="M 6.792969 -16.203125 C 5.21875 -16.203125 3.882812 -15.652344 2.777344 -14.542969 C 1.664062 -13.4375 1.105469 -12.105469 1.105469 -10.539062 L 1.105469 -5.675781 C 1.105469 -4.109375 1.664062 -2.777344 2.777344 -1.671875 C 3.882812 -0.558594 5.21875 0 6.792969 0 C 8.355469 0 9.691406 -0.558594 10.804688 -1.671875 C 11.914062 -2.777344 12.464844 -4.109375 12.464844 -5.675781 L 12.464844 -10.539062 C 12.464844 -12.105469 11.914062 -13.4375 10.804688 -14.542969 C 9.691406 -15.652344 8.355469 -16.203125 6.792969 -16.203125 Z M 10.230469 -5.675781 C 10.230469 -4.730469 9.894531 -3.921875 9.222656 -3.25 C 8.546875 -2.582031 7.734375 -2.246094 6.792969 -2.246094 C 5.839844 -2.246094 5.027344 -2.582031 4.359375 -3.25 C 3.679688 -3.921875 3.339844 -4.730469 3.339844 -5.675781 L 3.339844 -10.539062 C 3.339844 -11.484375 3.679688 -12.292969 4.359375 -12.964844 C 5.027344 -13.632812 5.839844 -13.96875 6.792969 -13.96875 C 7.734375 -13.96875 8.546875 -13.632812 9.222656 -12.964844 C 9.894531 -12.292969 10.230469 -11.484375 10.230469 -10.539062 Z M 10.230469 -5.675781" style="stroke:none"></path></g></g><g style="fill:#ed618f;fill-opacity:1;"><g transform="translate(314.865643, 108.892516)"><path d="M 1.128906 -16.203125 C 0.820312 -16.203125 0.558594 -16.09375 0.34375 -15.871094 C 0.121094 -15.65625 0.0117188 -15.394531 0.0117188 -15.085938 C 0.0117188 -14.777344 0.121094 -14.511719 0.34375 -14.289062 C 0.558594 -14.078125 0.820312 -13.96875 1.128906 -13.96875 L 2.421875 -13.96875 C 2.605469 -13.96875 2.699219 -13.878906 2.699219 -13.691406 L 2.699219 -1.128906 C 2.699219 -0.820312 2.808594 -0.554688 3.03125 -0.332031 C 3.246094 -0.109375 3.507812 0 3.816406 0 C 4.125 0 4.390625 -0.109375 4.613281 -0.332031 C 4.824219 -0.554688 4.933594 -0.820312 4.933594 -1.128906 L 4.933594 -13.691406 C 4.933594 -14.386719 4.691406 -14.976562 4.203125 -15.460938 C 3.707031 -15.957031 3.117188 -16.203125 2.421875 -16.203125 Z M 1.128906 -16.203125" style="stroke:none"></path></g></g><g style="fill:#ed618f;fill-opacity:1;"><g transform="translate(320.904669, 108.892516)"><path d="M 9.324219 -14.355469 C 9.523438 -14.59375 9.613281 -14.867188 9.589844 -15.175781 C 9.566406 -15.484375 9.4375 -15.738281 9.203125 -15.9375 C 8.964844 -16.136719 8.695312 -16.226562 8.382812 -16.203125 C 8.074219 -16.175781 7.820312 -16.046875 7.621094 -15.816406 L 2.511719 -9.820312 C 2.511719 -9.820312 2.507812 -9.816406 2.5 -9.8125 C 2.5 -9.804688 2.5 -9.800781 2.5 -9.800781 C 1.570312 -8.695312 1.105469 -7.417969 1.105469 -5.972656 C 1.105469 -4.328125 1.691406 -2.921875 2.863281 -1.757812 C 4.03125 -0.585938 5.4375 0 7.089844 0 C 8.742188 0 10.152344 -0.585938 11.324219 -1.757812 C 12.5 -2.921875 13.085938 -4.328125 13.085938 -5.972656 C 13.085938 -7.585938 12.515625 -8.976562 11.382812 -10.140625 C 10.253906 -11.300781 8.882812 -11.902344 7.265625 -11.945312 Z M 7.089844 -2.246094 C 6.058594 -2.246094 5.175781 -2.609375 4.445312 -3.339844 C 3.707031 -4.070312 3.339844 -4.949219 3.339844 -5.972656 C 3.339844 -7.003906 3.707031 -7.886719 4.445312 -8.617188 C 5.175781 -9.347656 6.058594 -9.710938 7.089844 -9.710938 C 8.128906 -9.710938 9.015625 -9.347656 9.746094 -8.617188 C 10.472656 -7.886719 10.839844 -7.003906 10.839844 -5.972656 C 10.839844 -4.949219 10.472656 -4.070312 9.746094 -3.339844 C 9.015625 -2.609375 8.128906 -2.246094 7.089844 -2.246094 Z M 7.089844 -2.246094" style="stroke:none"></path></g></g></g></svg>